<svg width="64" height="64" viewBox="0 0 64 64" fill="none" xmlns="http://www.w3.org/2000/svg">
<g id="Group 47">
<rect id="Rectangle 10" width="64" height="64" rx="16" fill="#FDE901"/>
<g id="Group">
<g id="Group_2">
<path id="Vector" d="M32 52C43.0457 52 52 43.0457 52 32C52 20.9543 43.0457 12 32 12C20.9543 12 12 20.9543 12 32C12 43.0457 20.9543 52 32 52Z" fill="white"/>
<g id="Mask Group">
<mask id="mask0_17023_184" style="mask-type:alpha" maskUnits="userSpaceOnUse" x="12" y="12" width="40" height="40">
<path id="Vector_2" d="M32 52C43.0457 52 52 43.0457 52 32C52 20.9543 43.0457 12 32 12C20.9543 12 12 20.9543 12 32C12 43.0457 20.9543 52 32 52Z" fill="#333333"/>
</mask>
<g mask="url(#mask0_17023_184)">
<g id="Group_3">
<g id="Group_4">
<path id="Vector_3" d="M30.7332 20.8672C30.3999 20.8672 30.0665 21.1339 30.0665 21.5339V31.6672C30.0665 32.0005 29.8665 32.3338 29.5332 32.4005C29.1332 32.4672 28.7332 32.1338 28.7332 31.7338V21.5339C28.7332 21.2005 28.4665 20.8672 28.0665 20.8672H27.9999C27.6665 20.8672 27.3332 21.1339 27.3332 21.5339V31.6672C27.3332 32.0005 27.1332 32.3338 26.7999 32.4005C26.3999 32.4672 25.9999 32.1338 25.9999 31.7338V21.5339C25.9999 21.2005 25.7332 20.8672 25.3332 20.8672C24.9999 20.8672 24.6665 21.1339 24.6665 21.5339V31.7338C24.6665 32.0672 24.4665 32.4005 24.1332 32.4672C23.7332 32.5339 23.3332 32.2005 23.3332 31.8005V21.5339C23.3332 21.2005 23.0665 20.8672 22.6665 20.8672C22.3332 20.8672 21.9999 21.1339 21.9999 21.4672C21.9332 24.2672 21.5999 35.4672 22.0665 36.2672C22.9332 37.8005 24.0665 37.8672 24.8665 39.5338C25.6665 41.2005 25.8665 44.4005 25.5999 48.0005C25.1332 54.9338 23.2665 62.9338 23.9332 64.4672C24.7999 66.4005 26.1999 66.4672 26.5999 66.4672C26.9999 66.4672 28.3999 66.3338 29.2665 64.4672C29.9999 62.9338 28.1332 54.9338 27.5999 48.0005C27.3332 44.4005 27.5332 41.1338 28.3332 39.5338C29.1332 37.8672 30.3332 37.8005 31.1332 36.2672C31.5332 35.4672 31.2665 24.2672 31.1999 21.4672C31.3332 21.1339 31.0665 20.8672 30.7332 20.8672Z" fill="#211F21"/>
</g>
<g id="Group_5">
<path id="Vector_4" d="M41.3338 20.067C41.3338 19.4003 40.5338 19.1336 40.1338 19.5336C39.1338 20.6003 37.7338 22.467 36.7338 25.5336C35.5338 29.3336 35.2005 40.2003 36.0005 42.2003C36.7338 44.0003 37.3338 43.3336 37.8672 44.1336C38.6672 45.467 38.4005 47.0003 38.1338 50.6003C37.6672 57.5336 35.8672 63.0003 36.5338 64.5336C37.4005 66.467 38.8005 66.5336 39.2005 66.5336C39.6005 66.5336 41.0005 66.4003 41.8672 64.5336C42.6005 63.0003 40.5338 46.3336 40.8005 42.3336C41.0672 40.6003 41.4672 24.867 41.3338 20.067Z" fill="#211F21"/>
</g>
</g>
</g>
</g>
</g>
</g>
</g>
</svg>
