<svg width="21" height="22" viewBox="0 0 21 22" fill="none" xmlns="http://www.w3.org/2000/svg">
<path id="Vector" d="M5 21H2C1.46957 21 0.960859 20.7893 0.585786 20.4142C0.210714 20.0391 0 19.5304 0 19V12C0 11.4696 0.210714 10.9609 0.585786 10.5858C0.960859 10.2107 1.46957 10 2 10H5M12 8V4C12 3.20435 11.6839 2.44129 11.1213 1.87868C10.5587 1.31607 9.79565 1 9 1L5 10V21H16.28C16.7623 21.0055 17.2304 20.8364 17.5979 20.524C17.9654 20.2116 18.2077 19.7769 18.28 19.3L19.66 10.3C19.7035 10.0134 19.6842 9.72068 19.6033 9.44225C19.5225 9.16382 19.3821 8.90629 19.1919 8.68751C19.0016 8.46873 18.7661 8.29393 18.5016 8.17522C18.2371 8.0565 17.9499 7.99672 17.66 8H12Z" stroke="#FFFFFF" stroke-width="2" stroke-linecap="round" stroke-linejoin="round"/>
</svg>
