<svg width="36" height="36" viewBox="0 0 36 36" fill="none" xmlns="http://www.w3.org/2000/svg">
<g id="Group 69">
<g id="Group 68">
<g id="Group 66">
<g id="Group 43" opacity="0.9">
<rect id="Rectangle 10" width="36" height="36" rx="16" fill="white"/>
</g>
</g>
</g>
<path id="Vector" d="M13 27H10C9.46957 27 8.96086 26.7893 8.58579 26.4142C8.21071 26.0391 8 25.5304 8 25V18C8 17.4696 8.21071 16.9609 8.58579 16.5858C8.96086 16.2107 9.46957 16 10 16H13M20 14V10C20 9.20435 19.6839 8.44129 19.1213 7.87868C18.5587 7.31607 17.7956 7 17 7L13 16V27H24.28C24.7623 27.0055 25.2304 26.8364 25.5979 26.524C25.9654 26.2116 26.2077 25.7769 26.28 25.3L27.66 16.3C27.7035 16.0134 27.6842 15.7207 27.6033 15.4423C27.5225 15.1638 27.3821 14.9063 27.1919 14.6875C27.0016 14.4687 26.7661 14.2939 26.5016 14.1752C26.2371 14.0565 25.9499 13.9967 25.66 14H20Z" stroke="#EFC81A" stroke-width="2" stroke-linecap="round" stroke-linejoin="round"/>
</g>
</svg>
