<svg width="64" height="64" viewBox="0 0 64 64" fill="none" xmlns="http://www.w3.org/2000/svg">
<g id="Group 49">
<rect id="Rectangle 10" width="64" height="64" rx="16" fill="#000001"/>
<g id="Group">
<path id="Vector" d="M37.0943 40.6144C33.4695 39.6762 29.4184 40.4864 26.3906 43.173C25.9216 43.5995 25.4951 44.0259 25.1113 44.495C27.9258 42.7039 31.2521 42.2348 34.3224 43.0451C34.7062 46.2007 33.8107 49.4417 31.6785 52.0003C32.1902 51.6592 32.6593 51.318 33.1284 50.8916C36.1561 48.205 37.5207 44.3244 37.0943 40.6144Z" fill="white"/>
<path id="Vector_2" d="M32.0195 28.0768C32.8724 28.3326 33.7252 28.5458 34.6208 28.6738C33.7679 28.8017 32.915 28.887 32.0621 28.887H32.0195C31.8915 28.887 31.7636 28.887 31.6357 28.887C24.9406 28.887 19.0984 25.5181 15.6016 20.4435C19.0984 15.3689 24.9406 12 31.593 12C31.721 12 31.8489 12 31.9768 12H32.0195C32.8724 12 33.7679 12.0853 34.5781 12.2132C33.6826 12.3412 32.8297 12.5544 31.9768 12.8102C27.7124 14.0896 24.0451 16.8188 21.5717 20.4435C24.0877 24.0256 27.7124 26.7548 32.0195 28.0768Z" fill="white"/>
<path id="Vector_3" d="M37.7344 12.7676C37.7344 12.7676 48.1395 15.4541 48.3954 24.9637C48.6512 34.4733 37.7344 39.2921 37.7344 39.2921C37.7344 39.2921 42.5531 32.1279 37.7344 29.4414C37.7344 29.4414 41.7855 29.1855 42.8943 31.1471C42.8943 31.1471 50.954 21.3816 37.7344 12.7676Z" fill="white"/>
<path id="Vector_4" d="M30.7819 22.6185C30.7819 23.4287 30.0996 24.1111 29.2894 24.1111C28.4792 24.1111 27.7969 23.4287 27.7969 22.6185C27.7969 21.8083 28.4792 21.126 29.2894 21.126C30.0996 21.1686 30.7819 21.8083 30.7819 22.6185Z" fill="white"/>
</g>
</g>
</svg>
