<svg width="64" height="64" viewBox="0 0 64 64" fill="none" xmlns="http://www.w3.org/2000/svg">
<g id="Group 48">
<rect id="Rectangle 10" width="64" height="64" rx="16" fill="#57CE96"/>
<g id="Group">
<path id="Vector" d="M51.1834 34.8712L46.1894 36.1678C46.1414 34.5831 46.1414 33.4307 46.1414 33.4307H32.3118H32.2638H31.7836H31.7356H17.9061C17.9061 33.4307 17.858 34.5831 17.858 36.2158L12.816 34.8712C12.2398 34.7272 11.6636 36.84 12.2878 36.9841L17.858 38.4247C17.858 40.4895 17.858 42.7464 18.0021 44.0909C18.2902 47.2122 19.0585 49.0369 23.3322 49.7092C27.0297 50.2854 30.9673 50.2374 32.0237 50.2374C33.0801 50.2854 37.0177 50.2854 40.7152 49.7092C45.0369 49.0369 45.7572 47.1642 46.0453 44.0909C46.1894 42.6984 46.1894 40.4895 46.1894 38.3766L51.7116 36.9361C52.3358 36.84 51.7596 34.7272 51.1834 34.8712Z" fill="#01246B"/>
<path id="Vector_2" d="M18.6255 31.6063C19.97 29.6855 19.5379 27.5247 17.329 26.1321C15.1201 24.7396 14.928 22.1465 16.9448 19.3134C18.2894 17.3446 17.7612 15.1357 15.5523 13.7432" stroke="white" stroke-opacity="0.5" stroke-miterlimit="10" stroke-linecap="round"/>
<path id="Vector_3" d="M20.7386 23.4432C19.298 22.1466 19.4421 20.3219 21.3148 18.4492C22.6594 17.1046 22.4673 15.568 21.0267 14.2715" stroke="white" stroke-opacity="0.5" stroke-miterlimit="10" stroke-linecap="round"/>
<g id="Group_2">
<path id="Vector_4" d="M35.0012 27.1882L35.3854 26.3238C34.521 26.0357 33.9928 25.5555 34.0408 25.0753C34.1369 24.4991 35.2413 24.163 36.5378 24.355C37.8343 24.5471 38.7467 25.2194 38.6507 25.7956C38.5546 26.2758 37.8824 26.5639 36.97 26.5639L37.066 27.4763C44.2689 28.7728 49.7911 30.9817 49.503 32.5663L21.5078 27.9565C21.7959 26.4679 27.7503 26.1318 35.0012 27.1882Z" fill="#01246B"/>
<path id="Vector_5" d="M27.0308 28.1965L23.5254 27.6202C24.2457 26.948 27.1749 26.8039 30.9204 27.1881C27.0308 27.14 26.9348 27.9083 27.0308 28.1965Z" fill="white"/>
<g id="Group_3">
<path id="Vector_6" d="M34.8095 25.7479C34.6655 25.6039 34.6655 25.4598 34.7135 25.2678C34.8095 24.7876 35.6739 24.4995 36.6823 24.5955C36.6343 24.5955 36.5862 24.5475 36.5382 24.5475C35.4338 24.3554 34.5214 24.6435 34.4254 25.1237C34.3774 25.3638 34.5694 25.5559 34.8095 25.7479Z" fill="white"/>
</g>
</g>
<path id="Vector_7" d="M28.2791 48.8455C24.2455 48.2213 23.5732 46.5406 23.2851 43.7075C23.045 41.2585 23.1891 35.8323 23.2371 34.3438H18.9634C18.9154 35.7843 18.8193 41.3065 19.0114 43.7555C19.2995 46.5886 19.9718 48.2693 24.0054 48.8936C27.4628 49.4218 31.1122 49.3738 32.1206 49.3738C32.5528 49.3738 30.7281 49.2297 28.2791 48.8455Z" fill="white"/>
</g>
</g>
</svg>
